HIERARCHY
ROOT Hips
{
	OFFSET 0.00000 0.00000 0.00000
	CHANNELS 6 Xposition Yposition Zposition Zrotation Yrotation Xrotation 
	JOINT LHipJoint
	{
		OFFSET 0 0 0
		CHANNELS 3 Zrotation Yrotation Xrotation
		JOINT LeftHip
		{
			OFFSET 1.57358 -1.76629 0.73362
			CHANNELS 3 Zrotation Yrotation Xrotation
			JOINT LeftKnee
			{
				OFFSET 2.40600 -6.61045 0.00000
				CHANNELS 3 Zrotation Yrotation Xrotation
				JOINT LeftAnkle
				{
					OFFSET 2.66168 -7.31291 0.00000
					CHANNELS 3 Zrotation Yrotation Xrotation
					JOINT LeftToe
					{
						OFFSET 0.20870 -0.57341 2.12506
						CHANNELS 3 Zrotation Yrotation Xrotation
						End Site
						{
							OFFSET 0.00000 -0.00000 1.10557
						}
					}
				}
			}
		}
	}
	JOINT RHipJoint
	{
		OFFSET 0 0 0
		CHANNELS 3 Zrotation Yrotation Xrotation
		JOINT RightHip
		{
			OFFSET -1.49299 -1.76629 0.73362
			CHANNELS 3 Zrotation Yrotation Xrotation
			JOINT RightKnee
			{
				OFFSET -2.43663 -6.69460 0.00000
				CHANNELS 3 Zrotation Yrotation Xrotation
				JOINT RightAnkle
				{
					OFFSET -2.62959 -7.22474 0.00000
					CHANNELS 3 Zrotation Yrotation Xrotation
					JOINT RightToe
					{
						OFFSET -0.25784 -0.70841 2.21862
						CHANNELS 3 Zrotation Yrotation Xrotation
						End Site
						{
							OFFSET -0.00000 -0.00000 1.16452
						}
					}
				}
			}
		}
	}
	JOINT lowerback
	{
		OFFSET 0 0 0
		CHANNELS 3 Zrotation Yrotation Xrotation
		JOINT Chest
		{
			OFFSET -0.00034 2.12399 -0.25450
			CHANNELS 3 Zrotation Yrotation Xrotation
			JOINT Chest2
			{
				OFFSET 0.05594 2.14379 -0.03318
				CHANNELS 3 Zrotation Yrotation Xrotation
				JOINT lowerneck
				{
					OFFSET 0 0 0
					CHANNELS 3 Zrotation Yrotation Xrotation
					JOINT Neck
					{
						OFFSET -0.09835 1.62725 0.24211
						CHANNELS 3 Zrotation Yrotation Xrotation
						JOINT Head
						{
							OFFSET 0.10849 1.66041 -0.22648
							CHANNELS 3 Zrotation Yrotation Xrotation
							End Site
							{
								OFFSET 0.04385 1.68267 -0.10541
							}
						}
					}
				}
				JOINT LeftCollar
				{
					OFFSET 0 0 0
					CHANNELS 3 Zrotation Yrotation Xrotation
					JOINT LeftShoulder
					{
						OFFSET 3.29108 0.79398 -0.68179
CHANNELS 3 Zrotation Xrotation Yrotation
						JOINT LeftElbow
						{
OFFSET 0 -5.153100 -0.000000
CHANNELS 3 Zrotation Xrotation Yrotation
							JOINT LeftWrist
							{
OFFSET 0 -3.751380 -0.000000
CHANNELS 3 Zrotation Xrotation Yrotation
								JOINT lhand
								{
									OFFSET 0 0 0
CHANNELS 3 Zrotation Xrotation Yrotation
									JOINT LFingers
									{
OFFSET 0 -0.529170 0.000000
CHANNELS 3 Zrotation Xrotation Yrotation
										End Site
										{
OFFSET 0 -0.426630 0.000000
										}
									}
								}
								JOINT LThumb
								{
OFFSET 0 0.000000 0.000000
CHANNELS 3 Zrotation Xrotation Yrotation
									End Site
									{
OFFSET 0 -0.433150 0.433150
									}
								}
							}
						}
					}
				}
				JOINT RightCollar
				{
					OFFSET 0 0 0
					CHANNELS 3 Zrotation Yrotation Xrotation
					JOINT RightShoulder
					{
						OFFSET -3.07414 1.06285 -0.44338
CHANNELS 3 Zrotation Xrotation Yrotation
						JOINT RightElbow
						{
OFFSET 0 -5.296130 0.000000
CHANNELS 3 Zrotation Xrotation Yrotation
							JOINT RightWrist
							{
OFFSET 0 -3.761440 -0.000000
CHANNELS 3 Zrotation Xrotation Yrotation
								JOINT rhand
								{
									OFFSET 0 0 0
CHANNELS 3 Zrotation Xrotation Yrotation
									JOINT RFingers
									{
OFFSET 0 -0.747320 0.000000
CHANNELS 3 Zrotation Xrotation Yrotation
										End Site
										{
OFFSET 0 -0.602510 0.000000
										}
									}
								}
								JOINT RThumb
								{
OFFSET 0 0.000000 0.000000
CHANNELS 3 Zrotation Xrotation Yrotation
									End Site
									{
OFFSET 0 -0.611710 0.611710
									}
								}
							}
						}
					}
				}
			}
		}
	}
}
MOTION
Frames: 7
Frame Time: 0.008333333333333333
1.079500 17.465500 -34.692700 1.103900 -1.893800 5.844600 0.000000 0.000000 0.000000 -22.070400 -7.932700 -12.459400 2.565600 9.956200 28.835000 1.086200 1.250500 -20.181100 0.009700 0.636200 1.748200 0.000000 0.000000 0.000000 20.433500 9.588600 -11.333600 -2.655500 -10.115300 29.350800 -0.915100 -4.531700 -20.256800 -0.000700 -0.176400 0.484600 -5.723200 -3.912800 2.013100 5.740300 -5.280400 -4.664900 9.613200 -2.277600 -4.960300 -14.872600 0.106800 -7.690200 5.522000 1.316900 18.264000 4.359700 0.077600 6.722300 0.000000 0.000000 0.000000 -9.099900 7.122600 -7.206700 14.169100 -22.975900 2.893800 16.260300 15.817900 -29.346200 0.000000 0.000000 0.000000 -7.125000 0.000000 0.000000 -16.866000 59.536200 6.092700 0.000000 0.000000 0.000000 -8.329600 5.474100 26.410200 -14.518200 -23.470700 -3.031500 -13.995600 8.193700 -2.089200 0.000000 0.000000 0.000000 7.125000 0.000000 -0.000000 9.678300 27.782700 4.105500
1.076890 17.466273 -34.697050 1.120042 -1.890707 5.863449 0.000000 0.000000 0.000000 -22.067404 -8.015152 -12.482115 2.573430 9.970216 28.880334 1.097703 1.213382 -20.270125 0.015983 0.814830 2.239335 0.000000 0.000000 0.000000 20.414458 9.544716 -11.427168 -2.663910 -10.129992 29.398744 -0.925636 -4.399758 -20.277099 -0.009593 -0.628001 1.725825 -5.851759 -4.044549 2.082309 5.840924 -5.463669 -4.735269 9.814642 -2.357345 -5.018007 -15.008506 0.263101 -7.373055 5.526930 1.495916 18.176135 4.390052 0.155606 6.618873 0.000000 0.000000 0.000000 -9.310041 7.196836 -6.747366 14.160111 -22.963237 2.890320 16.336759 15.933217 -29.322711 0.000000 0.000000 0.000000 -7.125000 0.000000 0.000000 -16.768276 59.531270 6.054229 0.000000 0.000000 0.000000 -8.518862 5.596956 27.025738 -14.637383 -23.638600 -3.079057 -15.111939 6.064256 -8.702463 0.000000 0.000000 0.000000 7.125000 0.000000 0.000000 8.488885 21.010720 4.926733
1.072787 17.464154 -34.696733 1.022332 -1.977483 5.878845 0.000000 0.000000 0.000000 -21.945794 -7.988324 -12.514163 2.573700 9.970700 28.881900 1.088861 1.241590 -20.201062 0.019280 0.895191 2.460489 0.000000 0.000000 0.000000 20.533906 9.630736 -11.426667 -2.668586 -10.138246 29.425504 -0.924880 -4.388294 -20.262962 -0.003367 -0.370073 1.016896 -5.944576 -4.125997 2.203686 6.032724 -5.575734 -4.837928 10.103060 -2.395562 -5.148785 -15.291673 0.424068 -7.158564 5.545858 1.715994 18.217428 4.455772 0.240610 6.570319 0.000000 0.000000 0.000000 -9.651953 7.301308 -6.139837 14.143749 -22.939843 2.883854 16.342293 16.028562 -29.138055 0.000000 0.000000 0.000000 -7.125000 0.000000 0.000000 -16.636489 59.355281 5.934661 0.000000 0.000000 0.000000 -8.849321 5.856996 27.682711 -14.772151 -23.827778 -3.133334 -15.802542 4.943158 -11.651522 0.000000 0.000000 0.000000 7.125000 0.000000 0.000000 7.944233 17.951284 5.156209
1.068451 17.465170 -34.695080 1.013500 -2.013305 5.890428 0.000000 0.000000 0.000000 -21.927022 -7.972613 -12.528908 2.570371 9.964761 28.862554 1.074792 1.294990 -20.095569 0.017790 0.860367 2.364780 0.000000 0.000000 0.000000 20.545469 9.648158 -11.462753 -2.678618 -10.155627 29.482100 -0.932898 -4.327151 -20.301673 -0.020177 -0.897958 2.468251 -6.085965 -4.208976 2.295255 6.158409 -5.694429 -4.902869 10.341949 -2.440482 -5.221618 -15.380347 0.519784 -7.094419 5.472154 1.860966 18.298346 4.456621 0.294371 6.571149 0.000000 0.000000 0.000000 -9.857846 7.349902 -5.792727 14.117135 -22.901847 2.873502 16.215444 15.951685 -29.033837 0.000000 0.000000 0.000000 -7.125000 0.000000 0.000000 -16.700996 59.226082 5.906494 0.000000 0.000000 0.000000 -9.088280 6.029351 28.195843 -14.846828 -23.932233 -3.163555 -15.639179 4.943156 -11.723373 0.000000 0.000000 0.000000 7.125000 0.000000 0.000000 8.055413 17.889654 5.243666
1.067220 17.464780 -34.694727 1.116234 -1.835686 5.869419 0.000000 0.000000 0.000000 -22.033946 -8.162238 -12.421388 2.564541 9.954396 28.829121 1.076159 1.348354 -20.130581 0.017340 0.851048 2.339157 0.000000 0.000000 0.000000 20.440700 9.394232 -11.534556 -2.688798 -10.173269 29.539753 -0.942898 -4.227431 -20.336859 -0.008150 -0.561462 1.542781 -6.272036 -4.312995 2.510800 6.220461 -5.851756 -4.995598 10.553798 -2.497013 -5.388126 -15.358714 0.559872 -7.105103 5.343538 1.937437 18.401096 4.418336 0.317635 6.601232 0.000000 0.000000 0.000000 -10.032587 7.534634 -5.697716 14.184309 -22.997614 2.899780 16.289071 15.913374 -29.011310 0.000000 0.000000 0.000000 -7.125000 0.000000 0.000000 -16.607653 59.221158 5.870335 0.000000 0.000000 0.000000 -9.255263 6.170142 28.494143 -14.913625 -24.025579 -3.190674 -15.520405 4.869708 -11.511111 0.000000 0.000000 0.000000 7.125000 0.000000 0.000000 8.140076 18.115066 5.258991
1.063768 17.461284 -34.693367 1.233816 -1.762315 5.890658 0.000000 0.000000 0.000000 -22.145318 -8.143883 -12.458165 2.561534 9.948901 28.811471 1.081932 1.307050 -20.165941 0.011052 0.673276 1.850179 0.000000 0.000000 0.000000 20.327116 9.346486 -11.582737 -2.693782 -10.182031 29.568110 -0.941218 -4.287492 -20.356762 -0.011165 -0.677141 1.860887 -5.995501 -4.202159 2.763193 5.930366 -5.705573 -5.295638 10.118938 -2.399119 -5.938774 -15.277226 0.525280 -6.568780 5.527182 1.754148 18.456586 4.448238 0.242343 6.539989 0.000000 0.000000 0.000000 -9.627710 8.177361 -6.238783 14.216676 -23.043656 2.912414 16.448051 15.702052 -28.701170 0.000000 0.000000 0.000000 -7.125000 0.000000 0.000000 -16.233203 58.958488 5.631345 0.000000 0.000000 0.000000 -8.846027 6.875221 28.104576 -15.007272 -24.156111 -3.228888 -15.704300 4.922245 -11.449427 0.000000 0.000000 0.000000 7.125000 0.000000 0.000000 8.011813 18.165894 5.165465
1.059022 17.459480 -34.692540 1.259638 -1.776390 5.898239 0.000000 0.000000 0.000000 -22.152385 -8.124544 -12.486333 2.561020 9.947940 28.808340 1.070685 1.311214 -20.065404 0.006761 0.528646 1.452645 0.000000 0.000000 0.000000 20.319035 9.444998 -11.560952 -2.696099 -10.186019 29.581076 -0.941000 -4.354858 -20.394346 -0.004923 -0.431597 1.186082 -5.604538 -4.013948 3.516784 5.621044 -5.466606 -5.850572 9.666790 -2.221245 -7.086805 -15.032056 0.501807 -5.937738 5.642469 1.562124 18.751160 4.433569 0.157209 6.541434 0.000000 0.000000 0.000000 -9.141567 9.136731 -6.760688 14.176299 -22.986147 2.896587 16.518063 15.548887 -28.536723 0.000000 0.000000 0.000000 -7.125000 0.000000 0.000000 -16.051186 58.815638 5.510451 0.000000 0.000000 0.000000 -8.368083 7.955746 27.614429 -15.064903 -24.236396 -3.252513 -15.799677 4.792480 -12.162979 0.000000 0.000000 0.000000 7.125000 0.000000 0.000000 7.942097 17.427990 5.249417
